<svg id="レイヤー_1" data-name="レイヤー 1" xmlns="http://www.w3.org/2000/svg" viewBox="0 0 234.28 178.27"><defs><style>.cls-1{fill:#231815;}</style></defs><title>hey_logo_cmyk</title><path class="cls-1" d="M56.4,11.89C37.73,33.41,19.29,85.08,19.29,102.53c0,1.72.8,1.75,1.76.49,3-3.93,12.16-12.65,17.57-16.38C48.1,80.12,56.05,82,57.8,89.35c6,25.23,11.22,22.72,30.63,11.44,9.18-5.33,12.68,2.18,3.48,8.53-42.59,29.36-49.1-8.89-49.37-9.87-4.17,2.28-18.37,18-23.32,29.8C16.82,135,.84,137.57.06,122.5-1.48,92.61,26.59,21.12,47.76,1.21,52.39-3.15,62.19,5.22,56.4,11.89Z"/><path class="cls-1" d="M220.41,75.11c-63.19,62.21-53.48,28.34-46.12,15h0c.26-.48.52-.94.78-1.36,2.8-4.63-5.63-14.91-12.34-9.07s-13.95,14.07-19,17.75c-3.78,2.77-4.17,10.7,6.77,7.37.62-.19,3.85-1.76,4.77-2.25-7.51,18.17,14.86,33.91,46.75,8.94-13.59,27.44-10.63,48.27-8.76,57.42,3.28,16.11,22.81,8.63,17.29-1.42a20.52,20.52,0,0,1-2.73-6.39C205,147.27,205.61,115.46,233,87,237.86,82,227.58,68.05,220.41,75.11Z"/><path class="cls-1" d="M91,99.46c17.44-8.36,24.59-20.37,25.48-22.06s.25-2-1.42-.91-13,8.46-17.6,26.38c-.61,2.38-.27,5.42.79,6.94s15.91,12.89,61.08-27.25c12.81-11.39,11.59,4.08,7.42,8.52-52.25,55.51-76.77,31.4-80,26.23a19.92,19.92,0,0,1-3.27-8.68,26.33,26.33,0,0,1,.32-8.37c1.91-9.58,7.21-18.13,13.2-25.1a65.38,65.38,0,0,1,10.11-9.65,24.46,24.46,0,0,1,7.69-3.94,15.21,15.21,0,0,1,5.58-.57,11.64,11.64,0,0,1,10.38,8.74,15.13,15.13,0,0,1,.42,5.56,23,23,0,0,1-2.68,8.37A40.65,40.65,0,0,1,119,95.07c-7.16,6.14-18.27,10.85-23.48,13.27C88.88,111.41,86.07,101.81,91,99.46Z"/></svg>